<mxfile host="app.diagrams.net" modified="2022-07-20T09:04:33.283Z" agent="5.0 (Windows NT 10.0; Win64; x64) AppleWebKit/537.36 (KHTML, like Gecko) Chrome/103.0.0.0 Safari/537.36" etag="QenIt2lAzbgU05gepdCa" version="20.0.4" type="github">
  <diagram id="C5RBs43oDa-KdzZeNtuy" name="Page-1">
    <mxGraphModel dx="1497" dy="813" grid="1" gridSize="10" guides="1" tooltips="1" connect="1" arrows="1" fold="1" page="1" pageScale="1" pageWidth="3300" pageHeight="4681" math="0" shadow="0">
      <root>
        <mxCell id="WIyWlLk6GJQsqaUBKTNV-0" />
        <mxCell id="WIyWlLk6GJQsqaUBKTNV-1" parent="WIyWlLk6GJQsqaUBKTNV-0" />
        <mxCell id="WIyWlLk6GJQsqaUBKTNV-3" value="Click login button" style="rounded=1;whiteSpace=wrap;html=1;fontSize=12;glass=0;strokeWidth=1;shadow=0;" parent="WIyWlLk6GJQsqaUBKTNV-1" vertex="1">
          <mxGeometry x="589" y="203" width="120" height="40" as="geometry" />
        </mxCell>
        <mxCell id="WIyWlLk6GJQsqaUBKTNV-4" value="Yes" style="rounded=0;html=1;jettySize=auto;orthogonalLoop=1;fontSize=11;endArrow=block;endFill=0;endSize=8;strokeWidth=1;shadow=0;labelBackgroundColor=none;edgeStyle=orthogonalEdgeStyle;" parent="WIyWlLk6GJQsqaUBKTNV-1" source="WIyWlLk6GJQsqaUBKTNV-6" edge="1">
          <mxGeometry y="20" relative="1" as="geometry">
            <mxPoint as="offset" />
            <mxPoint x="649" y="413" as="targetPoint" />
          </mxGeometry>
        </mxCell>
        <mxCell id="WIyWlLk6GJQsqaUBKTNV-5" value="No" style="edgeStyle=orthogonalEdgeStyle;rounded=0;html=1;jettySize=auto;orthogonalLoop=1;fontSize=11;endArrow=block;endFill=0;endSize=8;strokeWidth=1;shadow=0;labelBackgroundColor=none;entryX=1;entryY=0.5;entryDx=0;entryDy=0;" parent="WIyWlLk6GJQsqaUBKTNV-1" source="WIyWlLk6GJQsqaUBKTNV-6" target="WIyWlLk6GJQsqaUBKTNV-3" edge="1">
          <mxGeometry y="10" relative="1" as="geometry">
            <mxPoint as="offset" />
            <mxPoint x="759" y="223" as="targetPoint" />
            <Array as="points">
              <mxPoint x="729" y="333" />
              <mxPoint x="729" y="223" />
            </Array>
          </mxGeometry>
        </mxCell>
        <mxCell id="WIyWlLk6GJQsqaUBKTNV-6" value="Validate info" style="rhombus;whiteSpace=wrap;html=1;shadow=0;fontFamily=Helvetica;fontSize=12;align=center;strokeWidth=1;spacing=6;spacingTop=-4;" parent="WIyWlLk6GJQsqaUBKTNV-1" vertex="1">
          <mxGeometry x="599" y="293" width="100" height="80" as="geometry" />
        </mxCell>
        <mxCell id="r_9wE7WkklsP0T0sxxmU-37" value="" style="edgeStyle=orthogonalEdgeStyle;rounded=0;orthogonalLoop=1;jettySize=auto;html=1;" edge="1" parent="WIyWlLk6GJQsqaUBKTNV-1" source="WIyWlLk6GJQsqaUBKTNV-12" target="r_9wE7WkklsP0T0sxxmU-21">
          <mxGeometry relative="1" as="geometry" />
        </mxCell>
        <mxCell id="WIyWlLk6GJQsqaUBKTNV-12" value="Home screen" style="rounded=1;whiteSpace=wrap;html=1;fontSize=12;glass=0;strokeWidth=1;shadow=0;" parent="WIyWlLk6GJQsqaUBKTNV-1" vertex="1">
          <mxGeometry x="599" y="413" width="120" height="40" as="geometry" />
        </mxCell>
        <mxCell id="r_9wE7WkklsP0T0sxxmU-1" value="Click report lost item" style="rounded=1;whiteSpace=wrap;html=1;" vertex="1" parent="WIyWlLk6GJQsqaUBKTNV-1">
          <mxGeometry x="739" y="403" width="120" height="60" as="geometry" />
        </mxCell>
        <mxCell id="r_9wE7WkklsP0T0sxxmU-2" value="" style="endArrow=classic;html=1;rounded=0;exitX=1;exitY=0.5;exitDx=0;exitDy=0;" edge="1" parent="WIyWlLk6GJQsqaUBKTNV-1" source="WIyWlLk6GJQsqaUBKTNV-12" target="r_9wE7WkklsP0T0sxxmU-1">
          <mxGeometry width="50" height="50" relative="1" as="geometry">
            <mxPoint x="819" y="553" as="sourcePoint" />
            <mxPoint x="869" y="503" as="targetPoint" />
          </mxGeometry>
        </mxCell>
        <mxCell id="r_9wE7WkklsP0T0sxxmU-7" value="" style="endArrow=classic;html=1;rounded=0;exitX=0.5;exitY=1;exitDx=0;exitDy=0;entryX=0.5;entryY=0;entryDx=0;entryDy=0;" edge="1" parent="WIyWlLk6GJQsqaUBKTNV-1" source="WIyWlLk6GJQsqaUBKTNV-3" target="WIyWlLk6GJQsqaUBKTNV-6">
          <mxGeometry width="50" height="50" relative="1" as="geometry">
            <mxPoint x="819" y="433" as="sourcePoint" />
            <mxPoint x="669" y="283" as="targetPoint" />
          </mxGeometry>
        </mxCell>
        <mxCell id="r_9wE7WkklsP0T0sxxmU-9" value="Login screen" style="rounded=1;whiteSpace=wrap;html=1;fontSize=12;glass=0;strokeWidth=1;shadow=0;" vertex="1" parent="WIyWlLk6GJQsqaUBKTNV-1">
          <mxGeometry x="439" y="203" width="120" height="40" as="geometry" />
        </mxCell>
        <mxCell id="r_9wE7WkklsP0T0sxxmU-10" value="" style="endArrow=classic;html=1;rounded=0;exitX=1;exitY=0.5;exitDx=0;exitDy=0;" edge="1" parent="WIyWlLk6GJQsqaUBKTNV-1" source="r_9wE7WkklsP0T0sxxmU-9" target="WIyWlLk6GJQsqaUBKTNV-3">
          <mxGeometry width="50" height="50" relative="1" as="geometry">
            <mxPoint x="819" y="433" as="sourcePoint" />
            <mxPoint x="869" y="383" as="targetPoint" />
          </mxGeometry>
        </mxCell>
        <mxCell id="r_9wE7WkklsP0T0sxxmU-11" value="Post lost screen" style="rounded=1;whiteSpace=wrap;html=1;fontSize=12;glass=0;strokeWidth=1;shadow=0;" vertex="1" parent="WIyWlLk6GJQsqaUBKTNV-1">
          <mxGeometry x="969" y="403" width="120" height="60" as="geometry" />
        </mxCell>
        <mxCell id="r_9wE7WkklsP0T0sxxmU-12" value="" style="endArrow=classic;html=1;rounded=0;entryX=0;entryY=0.5;entryDx=0;entryDy=0;exitX=1;exitY=0.5;exitDx=0;exitDy=0;" edge="1" parent="WIyWlLk6GJQsqaUBKTNV-1" source="r_9wE7WkklsP0T0sxxmU-1" target="r_9wE7WkklsP0T0sxxmU-11">
          <mxGeometry width="50" height="50" relative="1" as="geometry">
            <mxPoint x="819" y="433" as="sourcePoint" />
            <mxPoint x="869" y="383" as="targetPoint" />
          </mxGeometry>
        </mxCell>
        <mxCell id="r_9wE7WkklsP0T0sxxmU-13" value="" style="endArrow=classic;html=1;rounded=0;exitX=0.5;exitY=1;exitDx=0;exitDy=0;" edge="1" parent="WIyWlLk6GJQsqaUBKTNV-1" source="r_9wE7WkklsP0T0sxxmU-11" target="r_9wE7WkklsP0T0sxxmU-14">
          <mxGeometry width="50" height="50" relative="1" as="geometry">
            <mxPoint x="999" y="393" as="sourcePoint" />
            <mxPoint x="1049" y="343" as="targetPoint" />
          </mxGeometry>
        </mxCell>
        <mxCell id="r_9wE7WkklsP0T0sxxmU-16" value="" style="edgeStyle=orthogonalEdgeStyle;rounded=0;orthogonalLoop=1;jettySize=auto;html=1;" edge="1" parent="WIyWlLk6GJQsqaUBKTNV-1" source="r_9wE7WkklsP0T0sxxmU-14" target="r_9wE7WkklsP0T0sxxmU-15">
          <mxGeometry relative="1" as="geometry" />
        </mxCell>
        <mxCell id="r_9wE7WkklsP0T0sxxmU-14" value="Click post lost button" style="rounded=1;whiteSpace=wrap;html=1;fontSize=12;glass=0;strokeWidth=1;shadow=0;" vertex="1" parent="WIyWlLk6GJQsqaUBKTNV-1">
          <mxGeometry x="969" y="503" width="120" height="60" as="geometry" />
        </mxCell>
        <mxCell id="r_9wE7WkklsP0T0sxxmU-20" value="No" style="edgeStyle=orthogonalEdgeStyle;rounded=0;orthogonalLoop=1;jettySize=auto;html=1;" edge="1" parent="WIyWlLk6GJQsqaUBKTNV-1" source="r_9wE7WkklsP0T0sxxmU-15" target="r_9wE7WkklsP0T0sxxmU-11">
          <mxGeometry relative="1" as="geometry">
            <Array as="points">
              <mxPoint x="879" y="453" />
            </Array>
          </mxGeometry>
        </mxCell>
        <mxCell id="r_9wE7WkklsP0T0sxxmU-15" value="Validate lost post" style="rhombus;whiteSpace=wrap;html=1;shadow=0;fontFamily=Helvetica;fontSize=12;align=center;strokeWidth=1;spacing=6;spacingTop=-4;" vertex="1" parent="WIyWlLk6GJQsqaUBKTNV-1">
          <mxGeometry x="829" y="493" width="100" height="80" as="geometry" />
        </mxCell>
        <mxCell id="r_9wE7WkklsP0T0sxxmU-18" value="" style="endArrow=classic;html=1;rounded=0;entryX=0.5;entryY=1;entryDx=0;entryDy=0;" edge="1" parent="WIyWlLk6GJQsqaUBKTNV-1" source="r_9wE7WkklsP0T0sxxmU-15" target="WIyWlLk6GJQsqaUBKTNV-12">
          <mxGeometry width="50" height="50" relative="1" as="geometry">
            <mxPoint x="819" y="513" as="sourcePoint" />
            <mxPoint x="869" y="463" as="targetPoint" />
            <Array as="points">
              <mxPoint x="659" y="533" />
            </Array>
          </mxGeometry>
        </mxCell>
        <mxCell id="r_9wE7WkklsP0T0sxxmU-19" value="Yes" style="edgeLabel;html=1;align=center;verticalAlign=middle;resizable=0;points=[];" vertex="1" connectable="0" parent="r_9wE7WkklsP0T0sxxmU-18">
          <mxGeometry x="-0.048" y="-2" relative="1" as="geometry">
            <mxPoint as="offset" />
          </mxGeometry>
        </mxCell>
        <mxCell id="r_9wE7WkklsP0T0sxxmU-51" value="" style="edgeStyle=orthogonalEdgeStyle;rounded=0;orthogonalLoop=1;jettySize=auto;html=1;" edge="1" parent="WIyWlLk6GJQsqaUBKTNV-1" source="r_9wE7WkklsP0T0sxxmU-21" target="r_9wE7WkklsP0T0sxxmU-49">
          <mxGeometry relative="1" as="geometry" />
        </mxCell>
        <mxCell id="r_9wE7WkklsP0T0sxxmU-21" value="Click Menu" style="rounded=1;whiteSpace=wrap;html=1;" vertex="1" parent="WIyWlLk6GJQsqaUBKTNV-1">
          <mxGeometry x="449" y="410.5" width="100" height="45" as="geometry" />
        </mxCell>
        <mxCell id="r_9wE7WkklsP0T0sxxmU-24" value="Click report found item" style="rounded=1;whiteSpace=wrap;html=1;" vertex="1" parent="WIyWlLk6GJQsqaUBKTNV-1">
          <mxGeometry x="739" y="333" width="120" height="60" as="geometry" />
        </mxCell>
        <mxCell id="r_9wE7WkklsP0T0sxxmU-25" value="" style="endArrow=classic;html=1;rounded=0;entryX=0.008;entryY=0.383;entryDx=0;entryDy=0;entryPerimeter=0;exitX=1;exitY=0.5;exitDx=0;exitDy=0;" edge="1" parent="WIyWlLk6GJQsqaUBKTNV-1" source="WIyWlLk6GJQsqaUBKTNV-12" target="r_9wE7WkklsP0T0sxxmU-24">
          <mxGeometry width="50" height="50" relative="1" as="geometry">
            <mxPoint x="719" y="403" as="sourcePoint" />
            <mxPoint x="869" y="453" as="targetPoint" />
            <Array as="points">
              <mxPoint x="719" y="356" />
            </Array>
          </mxGeometry>
        </mxCell>
        <mxCell id="r_9wE7WkklsP0T0sxxmU-26" value="" style="endArrow=classic;html=1;rounded=0;exitX=1;exitY=0.5;exitDx=0;exitDy=0;" edge="1" parent="WIyWlLk6GJQsqaUBKTNV-1" source="r_9wE7WkklsP0T0sxxmU-24">
          <mxGeometry width="50" height="50" relative="1" as="geometry">
            <mxPoint x="819" y="303" as="sourcePoint" />
            <mxPoint x="969" y="363" as="targetPoint" />
          </mxGeometry>
        </mxCell>
        <mxCell id="r_9wE7WkklsP0T0sxxmU-27" value="Post lost screen" style="rounded=1;whiteSpace=wrap;html=1;fontSize=12;glass=0;strokeWidth=1;shadow=0;" vertex="1" parent="WIyWlLk6GJQsqaUBKTNV-1">
          <mxGeometry x="969" y="403" width="120" height="60" as="geometry" />
        </mxCell>
        <mxCell id="r_9wE7WkklsP0T0sxxmU-28" value="Post found screen" style="rounded=1;whiteSpace=wrap;html=1;" vertex="1" parent="WIyWlLk6GJQsqaUBKTNV-1">
          <mxGeometry x="969" y="333" width="120" height="60" as="geometry" />
        </mxCell>
        <mxCell id="r_9wE7WkklsP0T0sxxmU-29" value="" style="endArrow=classic;html=1;rounded=0;exitX=1;exitY=0.5;exitDx=0;exitDy=0;entryX=1;entryY=0.5;entryDx=0;entryDy=0;" edge="1" parent="WIyWlLk6GJQsqaUBKTNV-1" source="r_9wE7WkklsP0T0sxxmU-28" target="r_9wE7WkklsP0T0sxxmU-30">
          <mxGeometry width="50" height="50" relative="1" as="geometry">
            <mxPoint x="819" y="293" as="sourcePoint" />
            <mxPoint x="1119" y="533" as="targetPoint" />
            <Array as="points">
              <mxPoint x="1119" y="363" />
              <mxPoint x="1119" y="633" />
            </Array>
          </mxGeometry>
        </mxCell>
        <mxCell id="r_9wE7WkklsP0T0sxxmU-33" value="" style="edgeStyle=orthogonalEdgeStyle;rounded=0;orthogonalLoop=1;jettySize=auto;html=1;" edge="1" parent="WIyWlLk6GJQsqaUBKTNV-1" source="r_9wE7WkklsP0T0sxxmU-30" target="r_9wE7WkklsP0T0sxxmU-32">
          <mxGeometry relative="1" as="geometry" />
        </mxCell>
        <mxCell id="r_9wE7WkklsP0T0sxxmU-30" value="Click post lost button" style="rounded=1;whiteSpace=wrap;html=1;fontSize=12;glass=0;strokeWidth=1;shadow=0;" vertex="1" parent="WIyWlLk6GJQsqaUBKTNV-1">
          <mxGeometry x="969" y="603" width="120" height="60" as="geometry" />
        </mxCell>
        <mxCell id="r_9wE7WkklsP0T0sxxmU-32" value="Validate found post" style="rhombus;whiteSpace=wrap;html=1;shadow=0;fontFamily=Helvetica;fontSize=12;align=center;strokeWidth=1;spacing=6;spacingTop=-4;" vertex="1" parent="WIyWlLk6GJQsqaUBKTNV-1">
          <mxGeometry x="829" y="593" width="100" height="80" as="geometry" />
        </mxCell>
        <mxCell id="r_9wE7WkklsP0T0sxxmU-34" value="No" style="edgeStyle=orthogonalEdgeStyle;rounded=0;orthogonalLoop=1;jettySize=auto;html=1;" edge="1" parent="WIyWlLk6GJQsqaUBKTNV-1" target="r_9wE7WkklsP0T0sxxmU-28">
          <mxGeometry relative="1" as="geometry">
            <mxPoint x="879" y="673" as="sourcePoint" />
            <mxPoint x="979" y="463" as="targetPoint" />
            <Array as="points">
              <mxPoint x="879" y="703" />
              <mxPoint x="1159" y="703" />
              <mxPoint x="1159" y="343" />
            </Array>
          </mxGeometry>
        </mxCell>
        <mxCell id="r_9wE7WkklsP0T0sxxmU-35" value="" style="endArrow=classic;html=1;rounded=0;entryX=0.5;entryY=1;entryDx=0;entryDy=0;exitX=0;exitY=0.5;exitDx=0;exitDy=0;" edge="1" parent="WIyWlLk6GJQsqaUBKTNV-1" source="r_9wE7WkklsP0T0sxxmU-32" target="WIyWlLk6GJQsqaUBKTNV-12">
          <mxGeometry width="50" height="50" relative="1" as="geometry">
            <mxPoint x="839" y="543" as="sourcePoint" />
            <mxPoint x="669" y="463" as="targetPoint" />
            <Array as="points">
              <mxPoint x="659" y="630" />
            </Array>
          </mxGeometry>
        </mxCell>
        <mxCell id="r_9wE7WkklsP0T0sxxmU-36" value="Yes" style="edgeLabel;html=1;align=center;verticalAlign=middle;resizable=0;points=[];" vertex="1" connectable="0" parent="r_9wE7WkklsP0T0sxxmU-35">
          <mxGeometry x="-0.048" y="-2" relative="1" as="geometry">
            <mxPoint as="offset" />
          </mxGeometry>
        </mxCell>
        <mxCell id="r_9wE7WkklsP0T0sxxmU-58" value="" style="edgeStyle=orthogonalEdgeStyle;rounded=0;orthogonalLoop=1;jettySize=auto;html=1;" edge="1" parent="WIyWlLk6GJQsqaUBKTNV-1" source="r_9wE7WkklsP0T0sxxmU-41" target="r_9wE7WkklsP0T0sxxmU-57">
          <mxGeometry relative="1" as="geometry" />
        </mxCell>
        <mxCell id="r_9wE7WkklsP0T0sxxmU-41" value="My profile screen" style="rounded=1;whiteSpace=wrap;html=1;" vertex="1" parent="WIyWlLk6GJQsqaUBKTNV-1">
          <mxGeometry x="150" y="457.5" width="100" height="37" as="geometry" />
        </mxCell>
        <mxCell id="r_9wE7WkklsP0T0sxxmU-56" value="" style="edgeStyle=orthogonalEdgeStyle;rounded=0;orthogonalLoop=1;jettySize=auto;html=1;" edge="1" parent="WIyWlLk6GJQsqaUBKTNV-1" source="r_9wE7WkklsP0T0sxxmU-44" target="r_9wE7WkklsP0T0sxxmU-41">
          <mxGeometry relative="1" as="geometry" />
        </mxCell>
        <mxCell id="r_9wE7WkklsP0T0sxxmU-44" value="Click My proifile" style="whiteSpace=wrap;html=1;rounded=1;" vertex="1" parent="WIyWlLk6GJQsqaUBKTNV-1">
          <mxGeometry x="290" y="460" width="101" height="32" as="geometry" />
        </mxCell>
        <mxCell id="r_9wE7WkklsP0T0sxxmU-45" value="Click Home" style="whiteSpace=wrap;html=1;rounded=1;" vertex="1" parent="WIyWlLk6GJQsqaUBKTNV-1">
          <mxGeometry x="290" y="780" width="101" height="32" as="geometry" />
        </mxCell>
        <mxCell id="r_9wE7WkklsP0T0sxxmU-77" value="" style="edgeStyle=orthogonalEdgeStyle;rounded=0;orthogonalLoop=1;jettySize=auto;html=1;" edge="1" parent="WIyWlLk6GJQsqaUBKTNV-1" source="r_9wE7WkklsP0T0sxxmU-46" target="r_9wE7WkklsP0T0sxxmU-76">
          <mxGeometry relative="1" as="geometry" />
        </mxCell>
        <mxCell id="r_9wE7WkklsP0T0sxxmU-46" value="Click Search" style="whiteSpace=wrap;html=1;rounded=1;" vertex="1" parent="WIyWlLk6GJQsqaUBKTNV-1">
          <mxGeometry x="520" y="503" width="101" height="32" as="geometry" />
        </mxCell>
        <mxCell id="r_9wE7WkklsP0T0sxxmU-47" value="Click View items" style="whiteSpace=wrap;html=1;rounded=1;" vertex="1" parent="WIyWlLk6GJQsqaUBKTNV-1">
          <mxGeometry x="290" y="580" width="101" height="32" as="geometry" />
        </mxCell>
        <mxCell id="r_9wE7WkklsP0T0sxxmU-48" value="Click Home" style="whiteSpace=wrap;html=1;rounded=1;" vertex="1" parent="WIyWlLk6GJQsqaUBKTNV-1">
          <mxGeometry x="290" y="730" width="101" height="32" as="geometry" />
        </mxCell>
        <mxCell id="r_9wE7WkklsP0T0sxxmU-49" value="Click Home" style="whiteSpace=wrap;html=1;rounded=1;" vertex="1" parent="WIyWlLk6GJQsqaUBKTNV-1">
          <mxGeometry x="290" y="417" width="101" height="32" as="geometry" />
        </mxCell>
        <mxCell id="r_9wE7WkklsP0T0sxxmU-50" value="Click My lost items" style="whiteSpace=wrap;html=1;rounded=1;" vertex="1" parent="WIyWlLk6GJQsqaUBKTNV-1">
          <mxGeometry x="290" y="510" width="101" height="32" as="geometry" />
        </mxCell>
        <mxCell id="r_9wE7WkklsP0T0sxxmU-52" value="" style="endArrow=classic;html=1;rounded=0;exitX=0.5;exitY=0;exitDx=0;exitDy=0;" edge="1" parent="WIyWlLk6GJQsqaUBKTNV-1" source="r_9wE7WkklsP0T0sxxmU-49">
          <mxGeometry width="50" height="50" relative="1" as="geometry">
            <mxPoint x="570" y="530" as="sourcePoint" />
            <mxPoint x="620" y="410" as="targetPoint" />
            <Array as="points">
              <mxPoint x="340" y="370" />
              <mxPoint x="620" y="370" />
            </Array>
          </mxGeometry>
        </mxCell>
        <mxCell id="r_9wE7WkklsP0T0sxxmU-60" value="" style="edgeStyle=orthogonalEdgeStyle;rounded=0;orthogonalLoop=1;jettySize=auto;html=1;" edge="1" parent="WIyWlLk6GJQsqaUBKTNV-1" source="r_9wE7WkklsP0T0sxxmU-57" target="r_9wE7WkklsP0T0sxxmU-59">
          <mxGeometry relative="1" as="geometry" />
        </mxCell>
        <mxCell id="r_9wE7WkklsP0T0sxxmU-57" value="Update info" style="whiteSpace=wrap;html=1;rounded=1;" vertex="1" parent="WIyWlLk6GJQsqaUBKTNV-1">
          <mxGeometry x="155" y="379.5" width="90" height="31" as="geometry" />
        </mxCell>
        <mxCell id="r_9wE7WkklsP0T0sxxmU-61" value="No" style="edgeStyle=orthogonalEdgeStyle;rounded=0;orthogonalLoop=1;jettySize=auto;html=1;" edge="1" parent="WIyWlLk6GJQsqaUBKTNV-1" source="r_9wE7WkklsP0T0sxxmU-59" target="r_9wE7WkklsP0T0sxxmU-41">
          <mxGeometry relative="1" as="geometry" />
        </mxCell>
        <mxCell id="r_9wE7WkklsP0T0sxxmU-59" value="Validate info" style="rhombus;whiteSpace=wrap;html=1;rounded=1;" vertex="1" parent="WIyWlLk6GJQsqaUBKTNV-1">
          <mxGeometry x="40" y="436" width="80" height="80" as="geometry" />
        </mxCell>
        <mxCell id="r_9wE7WkklsP0T0sxxmU-62" value="" style="endArrow=classic;html=1;rounded=0;exitX=0.5;exitY=1;exitDx=0;exitDy=0;" edge="1" parent="WIyWlLk6GJQsqaUBKTNV-1" source="r_9wE7WkklsP0T0sxxmU-59" target="r_9wE7WkklsP0T0sxxmU-41">
          <mxGeometry width="50" height="50" relative="1" as="geometry">
            <mxPoint x="570" y="530" as="sourcePoint" />
            <mxPoint x="620" y="480" as="targetPoint" />
            <Array as="points">
              <mxPoint x="200" y="516" />
            </Array>
          </mxGeometry>
        </mxCell>
        <mxCell id="r_9wE7WkklsP0T0sxxmU-63" value="Yes" style="edgeLabel;html=1;align=center;verticalAlign=middle;resizable=0;points=[];" vertex="1" connectable="0" parent="r_9wE7WkklsP0T0sxxmU-62">
          <mxGeometry x="0.0095" y="1" relative="1" as="geometry">
            <mxPoint as="offset" />
          </mxGeometry>
        </mxCell>
        <mxCell id="r_9wE7WkklsP0T0sxxmU-64" value="" style="endArrow=classic;html=1;rounded=0;exitX=0.5;exitY=1;exitDx=0;exitDy=0;" edge="1" parent="WIyWlLk6GJQsqaUBKTNV-1" source="r_9wE7WkklsP0T0sxxmU-21" target="r_9wE7WkklsP0T0sxxmU-44">
          <mxGeometry width="50" height="50" relative="1" as="geometry">
            <mxPoint x="570" y="530" as="sourcePoint" />
            <mxPoint x="620" y="480" as="targetPoint" />
            <Array as="points">
              <mxPoint x="499" y="476" />
            </Array>
          </mxGeometry>
        </mxCell>
        <mxCell id="r_9wE7WkklsP0T0sxxmU-65" value="" style="endArrow=classic;html=1;rounded=0;exitX=0.5;exitY=1;exitDx=0;exitDy=0;entryX=1;entryY=0.5;entryDx=0;entryDy=0;" edge="1" parent="WIyWlLk6GJQsqaUBKTNV-1" source="r_9wE7WkklsP0T0sxxmU-21" target="r_9wE7WkklsP0T0sxxmU-50">
          <mxGeometry width="50" height="50" relative="1" as="geometry">
            <mxPoint x="509" y="465.5" as="sourcePoint" />
            <mxPoint x="401" y="486" as="targetPoint" />
            <Array as="points">
              <mxPoint x="499" y="526" />
            </Array>
          </mxGeometry>
        </mxCell>
        <mxCell id="r_9wE7WkklsP0T0sxxmU-84" value="" style="edgeStyle=orthogonalEdgeStyle;rounded=0;orthogonalLoop=1;jettySize=auto;html=1;" edge="1" parent="WIyWlLk6GJQsqaUBKTNV-1" source="r_9wE7WkklsP0T0sxxmU-67" target="r_9wE7WkklsP0T0sxxmU-83">
          <mxGeometry relative="1" as="geometry" />
        </mxCell>
        <mxCell id="r_9wE7WkklsP0T0sxxmU-67" value="My lost items screen" style="rounded=1;whiteSpace=wrap;html=1;" vertex="1" parent="WIyWlLk6GJQsqaUBKTNV-1">
          <mxGeometry x="155" y="542" width="95" height="38" as="geometry" />
        </mxCell>
        <mxCell id="r_9wE7WkklsP0T0sxxmU-68" value="" style="endArrow=classic;html=1;rounded=0;exitX=0;exitY=0.5;exitDx=0;exitDy=0;entryX=1;entryY=0.75;entryDx=0;entryDy=0;" edge="1" parent="WIyWlLk6GJQsqaUBKTNV-1" source="r_9wE7WkklsP0T0sxxmU-50" target="r_9wE7WkklsP0T0sxxmU-67">
          <mxGeometry width="50" height="50" relative="1" as="geometry">
            <mxPoint x="290" y="640" as="sourcePoint" />
            <mxPoint x="340" y="590" as="targetPoint" />
            <Array as="points">
              <mxPoint x="290" y="570" />
            </Array>
          </mxGeometry>
        </mxCell>
        <mxCell id="r_9wE7WkklsP0T0sxxmU-69" value="Click delete button" style="whiteSpace=wrap;html=1;rounded=1;" vertex="1" parent="WIyWlLk6GJQsqaUBKTNV-1">
          <mxGeometry x="151.88" y="612" width="101.25" height="37.5" as="geometry" />
        </mxCell>
        <mxCell id="r_9wE7WkklsP0T0sxxmU-74" value="" style="endArrow=classic;html=1;rounded=0;exitX=0.5;exitY=1;exitDx=0;exitDy=0;entryX=0.5;entryY=0;entryDx=0;entryDy=0;" edge="1" parent="WIyWlLk6GJQsqaUBKTNV-1" source="r_9wE7WkklsP0T0sxxmU-67" target="r_9wE7WkklsP0T0sxxmU-69">
          <mxGeometry width="50" height="50" relative="1" as="geometry">
            <mxPoint x="170" y="650" as="sourcePoint" />
            <mxPoint x="220" y="600" as="targetPoint" />
          </mxGeometry>
        </mxCell>
        <mxCell id="r_9wE7WkklsP0T0sxxmU-75" value="" style="endArrow=classic;html=1;rounded=0;entryX=0.572;entryY=0.026;entryDx=0;entryDy=0;entryPerimeter=0;exitX=0.25;exitY=1;exitDx=0;exitDy=0;" edge="1" parent="WIyWlLk6GJQsqaUBKTNV-1" source="WIyWlLk6GJQsqaUBKTNV-12" target="r_9wE7WkklsP0T0sxxmU-46">
          <mxGeometry width="50" height="50" relative="1" as="geometry">
            <mxPoint x="570" y="520" as="sourcePoint" />
            <mxPoint x="620" y="470" as="targetPoint" />
            <Array as="points">
              <mxPoint x="629" y="480" />
              <mxPoint x="578" y="480" />
            </Array>
          </mxGeometry>
        </mxCell>
        <mxCell id="r_9wE7WkklsP0T0sxxmU-80" value="" style="edgeStyle=orthogonalEdgeStyle;rounded=0;orthogonalLoop=1;jettySize=auto;html=1;" edge="1" parent="WIyWlLk6GJQsqaUBKTNV-1" source="r_9wE7WkklsP0T0sxxmU-76" target="r_9wE7WkklsP0T0sxxmU-79">
          <mxGeometry relative="1" as="geometry" />
        </mxCell>
        <mxCell id="r_9wE7WkklsP0T0sxxmU-76" value="Search by content" style="whiteSpace=wrap;html=1;rounded=1;" vertex="1" parent="WIyWlLk6GJQsqaUBKTNV-1">
          <mxGeometry x="515.75" y="580" width="109.5" height="40" as="geometry" />
        </mxCell>
        <mxCell id="r_9wE7WkklsP0T0sxxmU-79" value="View&amp;nbsp; items screen" style="rounded=1;whiteSpace=wrap;html=1;" vertex="1" parent="WIyWlLk6GJQsqaUBKTNV-1">
          <mxGeometry x="513.5" y="653.5" width="114" height="50" as="geometry" />
        </mxCell>
        <mxCell id="r_9wE7WkklsP0T0sxxmU-81" value="" style="endArrow=classic;html=1;rounded=0;exitX=0.5;exitY=1;exitDx=0;exitDy=0;entryX=1;entryY=0.5;entryDx=0;entryDy=0;" edge="1" parent="WIyWlLk6GJQsqaUBKTNV-1" source="r_9wE7WkklsP0T0sxxmU-21" target="r_9wE7WkklsP0T0sxxmU-47">
          <mxGeometry width="50" height="50" relative="1" as="geometry">
            <mxPoint x="509" y="465.5" as="sourcePoint" />
            <mxPoint x="401" y="536" as="targetPoint" />
            <Array as="points">
              <mxPoint x="500" y="596" />
            </Array>
          </mxGeometry>
        </mxCell>
        <mxCell id="r_9wE7WkklsP0T0sxxmU-82" value="" style="endArrow=classic;html=1;rounded=0;exitX=1;exitY=1;exitDx=0;exitDy=0;entryX=0;entryY=0.5;entryDx=0;entryDy=0;" edge="1" parent="WIyWlLk6GJQsqaUBKTNV-1" source="r_9wE7WkklsP0T0sxxmU-47" target="r_9wE7WkklsP0T0sxxmU-79">
          <mxGeometry width="50" height="50" relative="1" as="geometry">
            <mxPoint x="570" y="530" as="sourcePoint" />
            <mxPoint x="620" y="480" as="targetPoint" />
            <Array as="points">
              <mxPoint x="470" y="612" />
              <mxPoint x="470" y="680" />
            </Array>
          </mxGeometry>
        </mxCell>
        <mxCell id="r_9wE7WkklsP0T0sxxmU-86" value="" style="edgeStyle=orthogonalEdgeStyle;rounded=0;orthogonalLoop=1;jettySize=auto;html=1;" edge="1" parent="WIyWlLk6GJQsqaUBKTNV-1" source="r_9wE7WkklsP0T0sxxmU-83" target="r_9wE7WkklsP0T0sxxmU-85">
          <mxGeometry relative="1" as="geometry" />
        </mxCell>
        <mxCell id="r_9wE7WkklsP0T0sxxmU-83" value="Click update button" style="whiteSpace=wrap;html=1;rounded=1;" vertex="1" parent="WIyWlLk6GJQsqaUBKTNV-1">
          <mxGeometry x="40" y="540.5" width="67.5" height="41" as="geometry" />
        </mxCell>
        <mxCell id="r_9wE7WkklsP0T0sxxmU-88" value="" style="edgeStyle=orthogonalEdgeStyle;rounded=0;orthogonalLoop=1;jettySize=auto;html=1;" edge="1" parent="WIyWlLk6GJQsqaUBKTNV-1" source="r_9wE7WkklsP0T0sxxmU-85" target="r_9wE7WkklsP0T0sxxmU-87">
          <mxGeometry relative="1" as="geometry" />
        </mxCell>
        <mxCell id="r_9wE7WkklsP0T0sxxmU-85" value="Update lost items" style="whiteSpace=wrap;html=1;rounded=1;" vertex="1" parent="WIyWlLk6GJQsqaUBKTNV-1">
          <mxGeometry x="15.629999999999999" y="621.5" width="116.25" height="28" as="geometry" />
        </mxCell>
        <mxCell id="r_9wE7WkklsP0T0sxxmU-87" value="Validate Update" style="rhombus;whiteSpace=wrap;html=1;rounded=1;" vertex="1" parent="WIyWlLk6GJQsqaUBKTNV-1">
          <mxGeometry x="33.754999999999995" y="682" width="80" height="80" as="geometry" />
        </mxCell>
        <mxCell id="r_9wE7WkklsP0T0sxxmU-89" value="" style="endArrow=classic;html=1;rounded=0;exitX=1;exitY=0.5;exitDx=0;exitDy=0;entryX=0;entryY=0.75;entryDx=0;entryDy=0;" edge="1" parent="WIyWlLk6GJQsqaUBKTNV-1" source="r_9wE7WkklsP0T0sxxmU-87" target="r_9wE7WkklsP0T0sxxmU-67">
          <mxGeometry width="50" height="50" relative="1" as="geometry">
            <mxPoint x="570" y="520" as="sourcePoint" />
            <mxPoint x="140" y="570" as="targetPoint" />
            <Array as="points">
              <mxPoint x="140" y="722" />
              <mxPoint x="140" y="571" />
            </Array>
          </mxGeometry>
        </mxCell>
        <mxCell id="r_9wE7WkklsP0T0sxxmU-100" value="Yes" style="edgeLabel;html=1;align=center;verticalAlign=middle;resizable=0;points=[];" vertex="1" connectable="0" parent="r_9wE7WkklsP0T0sxxmU-89">
          <mxGeometry x="-0.3738" relative="1" as="geometry">
            <mxPoint x="-20" y="34" as="offset" />
          </mxGeometry>
        </mxCell>
        <mxCell id="r_9wE7WkklsP0T0sxxmU-101" value="No" style="endArrow=classic;html=1;rounded=0;exitX=0.5;exitY=1;exitDx=0;exitDy=0;" edge="1" parent="WIyWlLk6GJQsqaUBKTNV-1" source="r_9wE7WkklsP0T0sxxmU-87">
          <mxGeometry width="50" height="50" relative="1" as="geometry">
            <mxPoint x="73.755" y="812" as="sourcePoint" />
            <mxPoint x="150" y="570" as="targetPoint" />
            <Array as="points">
              <mxPoint x="140" y="762" />
              <mxPoint x="140" y="580" />
            </Array>
          </mxGeometry>
        </mxCell>
        <mxCell id="r_9wE7WkklsP0T0sxxmU-102" value="Text" style="edgeLabel;html=1;align=center;verticalAlign=middle;resizable=0;points=[];" vertex="1" connectable="0" parent="r_9wE7WkklsP0T0sxxmU-101">
          <mxGeometry x="-0.0928" y="-1" relative="1" as="geometry">
            <mxPoint as="offset" />
          </mxGeometry>
        </mxCell>
      </root>
    </mxGraphModel>
  </diagram>
</mxfile>
